<?xml version="1.0" encoding="UTF-8"?>
<svg width="284px" height="113px" viewBox="0 0 284 113" version="1.1" xmlns="http://www.w3.org/2000/svg" xmlns:xlink="http://www.w3.org/1999/xlink">
    <title>2020_ARION_FRESH_Logo</title>
    <g id="Page-1" stroke="none" stroke-width="1" fill="none" fill-rule="evenodd">
        <g id="2020_ARION_FRESH_Logo" fill-rule="nonzero">
            <path d="M281.91,47.15 L268.87,39.58 C268.02,39.08 266.87,38.94 265.94,39.2 C264.96,39.47 264.11,40.14 263.61,41.03 L253.69,58.94 L252.86,32.86 C252.82,31.53 252.07,30.29 250.91,29.64 L233.57,19.86 C231.91,18.91 229.33,19.63 228.37,21.26 L219.89,35.78 L219.87,34.87 C219.73,28.13 217.11,23.62 216.58,22.78 C211.99,14.3 204.78,10.65 204.71,10.61 C195.35,5.11 187.77,3.86 186.34,3.66 C184.06,3.17 181.67,2.92 179.2,2.92 C172.85,2.92 168.06,4.53 167.53,4.71 C166.52,5.09 165.57,5.5 164.49,6 C159.24,8.68 153.27,12.41 148.86,22.7 L148.37,22.6 L148.22,4.2 C148.21,3.19 147.79,2.21 147.08,1.5 C146.16,0.59 145.07,0.46 144.71,0.42 L127.5,0.59 C126.49,0.6 125.51,1.02 124.81,1.74 C124.09,2.47 123.71,3.44 123.72,4.47 L124.38,55.58 L108.78,36.69 L108.95,36.53 C113.06,32.7 114.7,29.12 114.77,28.97 C120.02,17.58 109.41,8.11 108.96,7.71 C105.49,5.08 101.05,3.69 96.14,3.69 C95.68,3.69 91.56,4 89.56,4.53 L59.31,12.34 C58.32,12.59 57.46,13.24 56.95,14.12 C56.43,15.01 56.29,16.05 56.56,17.05 L69.43,64.6 L23.67,29.3 C23.03,28.81 22.19,28.54 21.3,28.54 C20.59,28.54 19.89,28.72 19.35,29.06 L2.18,39.49 C0.91,40.26 0.2,41.71 0.37,43.18 L7.62,108.72 C7.78,110.15 8.71,111.36 10.05,111.87 C11.37,112.38 12.93,112.09 13.98,111.15 L29.03,97.69 C30.03,96.8 30.49,95.43 30.24,94.11 L27.34,79.04 L39.58,71.65 L50.96,80.54 C51.99,81.34 53.48,81.56 54.7,81.09 L72.38,74.22 C72.97,74 84.99,70.23 91.26,68.27 C93.2,67.64 94.31,65.61 93.78,63.63 L90,49.62 L90.45,49.4 L101.19,63.63 C101.92,64.6 103.07,65.15 104.33,65.15 L124.26,63.24 C125.66,63.09 127.71,62.88 128.31,62.88 L144.92,62.62 C147.01,62.59 148.71,60.86 148.69,58.76 L148.61,49.21 L149.09,49.09 C152.86,55.95 158.68,59.67 158.93,59.83 C171.42,67.57 181.53,68.41 185.3,68.41 C185.96,68.41 186.39,68.39 186.57,68.37 L187.73,68.39 C192.85,68.39 197.91,66.98 202.77,64.21 L203.6,63.74 L199.59,70.6 C199.04,71.54 198.92,72.67 199.25,73.71 C199.58,74.74 200.34,75.59 201.33,76.03 L215.01,82.14 C216.68,82.88 218.96,82.13 219.87,80.57 L231.61,60.43 L232.49,91.09 C232.53,92.3 233.14,93.44 234.14,94.12 L249.39,104.67 C250.02,105.11 250.8,105.35 251.59,105.35 C251.88,105.35 252.16,105.32 252.44,105.26 C253.49,105.02 254.39,104.34 254.92,103.39 L283.33,52.35 C284.34,50.52 283.7,48.2 281.91,47.15 Z M21.71,63.04 L19.92,50.19 L29.45,58.44 L21.71,63.04 Z M83.74,34.45 L80.68,24.07 L90.3,21.69 C90.3,21.69 93.91,21.19 95.49,24.75 C95.48,24.75 98.12,32.5 83.74,34.45 Z M196.93,38.99 L196.87,39.14 L196.84,39.3 L196.84,39.3 C196.83,39.3 194.9,45.48 189.81,48.27 L189.71,48.32 L189.62,48.39 C189.59,48.41 186.85,50.44 182.65,50.44 C182.32,50.44 181.97,50.43 181.62,50.4 C181.23,50.39 175,50.33 170.38,44.72 C170.24,44.56 167.53,41.31 168.24,36.22 L168.34,35.49 L168.31,35.46 C168.43,34.45 168.8,32.31 169.83,30.43 C169.93,30.21 173.13,22.84 180.11,21.24 C180.19,21.22 181.87,20.77 184.02,20.77 C185.62,20.77 187.05,21.01 188.36,21.5 C188.52,21.55 193.72,23.15 196.04,27.01 C196.18,27.23 199.39,32.74 196.93,38.99 Z" id="Shape" fill="#000000"></path>
            <path d="M281.17,48.51 L268.13,40.94 C267.62,40.65 266.92,40.56 266.38,40.72 C265.79,40.88 265.28,41.29 264.98,41.82 L252.37,64.59 L251.37,32.95 C251.34,32.15 250.9,31.41 250.2,31.02 L232.85,21.24 C231.88,20.68 230.29,21.12 229.73,22.08 L219.56,39.5 C219.29,40.17 218.08,40.07 218.14,39.03 L218.19,38.8 L218.17,38.79 C219.27,30.24 215.71,24.25 215.3,23.6 C210.92,15.53 204.29,12.14 204.02,12.01 C194.71,6.54 186.94,5.33 186.11,5.22 C183.9,4.75 181.59,4.51 179.24,4.51 C173.14,4.51 168.59,6.04 168.09,6.21 C167.13,6.56 166.21,6.97 165.2,7.44 C159.85,10.18 153.77,14.05 149.51,25.36 C149.09,26.36 148.43,28.42 148.39,28.55 C148.3,29.36 146.89,29.39 146.93,28.33 L146.73,4.28 C146.72,3.67 146.47,3.08 146.04,2.66 C145.55,2.18 145,2.06 144.53,2.01 L127.55,2.19 C126.94,2.2 126.36,2.45 125.94,2.88 C125.51,3.32 125.27,3.9 125.28,4.52 L126,60.36 L124.45,58.1 L106.68,36.59 L107.24,36.1 C111.67,32.23 113.4,28.43 113.41,28.4 C118.15,18.1 108.45,9.34 108.02,8.96 C104.85,6.56 100.75,5.29 96.17,5.29 C93.52,5.29 91.43,5.72 90.66,5.9 L59.72,13.89 C59.13,14.04 58.61,14.43 58.3,14.96 C57.99,15.49 57.9,16.12 58.07,16.72 L70.63,63.12 L70.57,63.16 L70.65,63.35 C70.77,63.6 70.82,63.82 70.82,64.04 C70.82,65.02 70.02,65.82 69.04,65.82 C68.53,65.82 68.15,65.58 67.91,65.38 L67.73,65.27 L67.73,65.27 L22.76,30.55 C22.06,30.01 20.91,29.95 20.17,30.4 L3.01,40.83 C2.25,41.29 1.82,42.16 1.92,43.05 L9.17,108.59 C9.27,109.45 9.82,110.17 10.63,110.48 C10.89,110.58 11.17,110.64 11.46,110.64 C12.03,110.64 12.58,110.43 13,110.06 L28.05,96.6 C28.65,96.06 28.93,95.24 28.78,94.46 L25.68,78.34 L39.73,69.85 L51.94,79.39 C52.56,79.87 53.45,80 54.19,79.72 L71.87,72.84 C72.42,72.63 86.49,68.22 90.84,66.86 C92,66.48 92.66,65.26 92.34,64.08 L87.2,44.98 L86.08,41.02 L102.46,62.75 C102.89,63.32 103.58,63.67 104.32,63.67 C104.32,63.67 104.32,63.67 104.32,63.67 L124.14,61.76 C124.87,61.68 125.58,61.61 126.21,61.55 L126.54,61.52 C127.35,61.44 127.98,61.4 128.3,61.4 L144.93,61.14 C146.19,61.12 147.2,60.08 147.19,58.83 L147.07,44.41 L147.11,44.4 L147.08,44.16 C147.08,43.74 147.42,43.41 147.83,43.41 C148.17,43.41 148.46,43.64 148.54,43.99 L148.62,44.22 L148.64,44.22 C151.65,53.35 159.44,58.37 159.78,58.58 C173.92,67.34 184.85,67.05 186.56,66.88 L187.78,66.9 C195.43,66.9 201.62,63.52 205.51,60.65 C205.95,60.15 206.83,60.52 206.83,61.15 C206.83,61.3 206.77,61.45 206.66,61.6 L206.54,61.8 L206.56,61.82 L200.95,71.42 C200.62,71.99 200.55,72.67 200.75,73.29 C200.95,73.91 201.4,74.41 202,74.68 L215.68,80.79 C216.66,81.22 218.06,80.76 218.59,79.85 L233.03,55.08 L234.07,91.1 C234.09,91.83 234.46,92.51 235.06,92.92 L250.31,103.47 C250.83,103.83 251.53,103.97 252.14,103.82 C252.77,103.68 253.32,103.27 253.64,102.7 L282.05,51.66 C282.63,50.53 282.25,49.14 281.17,48.51 Z M22.4,61.71 L21.35,52.78 L28.14,58.29 L22.4,61.71 Z M83.83,33.47 L81.51,24.8 L90.19,22.64 C90.19,22.64 93.04,21.63 94.63,25.19 C94.63,25.2 97.17,31.4 83.83,33.47 Z M196.23,38.76 L196.17,38.9 L196.14,39.05 L196.14,39.05 C196.13,39.05 194.29,44.93 189.46,47.57 L189.37,47.62 L189.28,47.68 C189.25,47.7 186.65,49.63 182.66,49.63 C182.34,49.63 182.02,49.62 181.69,49.59 C181.32,49.58 175.4,49.52 171.01,44.19 C170.88,44.04 168.3,40.95 168.98,36.11 L169.08,35.42 L169.05,35.39 C169.17,34.42 169.51,32.4 170.49,30.62 C170.59,30.41 173.63,23.4 180.25,21.89 C180.33,21.87 181.92,21.44 183.96,21.44 C185.48,21.44 186.83,21.67 188.08,22.14 C188.23,22.19 193.17,23.7 195.37,27.37 C195.52,27.59 198.57,32.82 196.23,38.76 Z" id="Shape" fill="#FFFFFF"></path>
            <g id="Group" transform="translate(3.000000, 3.000000)" fill="#E1251B">
                <path d="M120.26,56.78 C120.33,56.61 120.3,56.4 120.18,56.26 L101.21,33.29 L101.63,32.97 C106.83,29.02 108.78,24.81 108.87,24.63 C113.02,15.61 104.41,7.72 104.04,7.39 C101.18,5.22 97.43,4.06 93.24,4.06 C90.09,4.06 87.78,4.72 87.76,4.72 L57.23,12.6 C57.1,12.63 56.98,12.72 56.92,12.84 C56.8496133,12.96 56.83,13.1 56.87,13.23 L71.36,66.76 C71.4,66.9 71.49,67.01 71.61,67.08 C71.73,67.15 71.89,67.16 72.01,67.12 L87.33,62.16 C87.59,62.08 87.74,61.81 87.67,61.54 L76.62,20.48 L85.98,18.19 C86.49,18.08 87.37,17.9 88.34,17.9 C89.42,17.9 90.29,18.13 90.92,18.59 C92.79,19.94 93.26,21.66 93.33,22.87 C93.44,24.77 92.63,26.81 91.26,28.07 C88.33,30.75 82.84,31.79 80.94,32.14 L100.96,58.69 C101.05,58.81 101.21,58.89 101.37,58.89 L119.85,57.11 C120.02,57.07 120.18,56.95 120.26,56.78 Z" id="Path"></path>
                <path d="M125.37,56.6 L141.96,56.34 C142.24,56.34 142.47,56.1 142.46,55.83 L142.01,1.29 C142.01,1.16 141.95,1.02 141.85,0.93 C141.78,0.86 141.69,0.81 141.42,0.78 L124.64,0.98 C124.51,0.98 124.38,1.04 124.28,1.13 C124.18,1.23 124.13,1.36 124.14,1.5 L124.85,56.11 C124.85,56.25 124.91,56.38 125,56.47 C125.1,56.54 125.23,56.6 125.37,56.6" id="Path"></path>
                <path d="M232.9,88 C232.91,88.16 232.99,88.31 233.12,88.4 L248.37,98.95 C248.49,99.03 248.63,99.06 248.78,99.03 C248.92,99 249.04,98.91 249.11,98.78 L277.52,47.74 C277.66,47.5 277.57,47.19 277.33,47.05 L264.29,39.48 C264.21,39.44 264.13,39.41 264.04,39.41 C263.77,39.47 263.66,39.55 263.59,39.67 L247.83,68.12 L246.62,29.99 C246.62,29.81 246.52,29.65 246.36,29.56 L229.01,19.77 C228.77,19.63 228.46,19.72 228.32,19.96 L199.54,69.3 C199.469613,69.42 199.45,69.57 199.49,69.71 C199.54,69.85 199.64,69.96 199.77,70.02 L213.44,76.12 C213.67,76.22 213.96,76.14 214.09,75.91 L231.68,45.73 L232.9,88 Z" id="Path"></path>
                <path d="M68.41,67.29 L18.74,28.96 C18.65,28.89 18.54,28.85 18.43,28.85 C18.34,28.85 18.25,28.87 18.17,28.92 L1.01,39.36 C0.84,39.46 0.74,39.66 0.77,39.85 L8.03,105.39 C8.05,105.58 8.17,105.74 8.35,105.81 L8.53,105.84 C8.65,105.84 8.78,105.8 8.87,105.71 L23.92,92.25 C24.06,92.13 24.12,91.95 24.08,91.77 L20.75,74.43 L36.92,64.66 L50.1,74.95 C50.19,75.02 50.3,75.06 50.41,75.06 L68.28,68.15 C68.45,68.08 68.57,67.93 68.6,67.75 C68.63,67.58 68.55,67.4 68.41,67.29 Z M18.19,61.06 L16.47,46.38 L27.64,55.44 L18.19,61.06 Z" id="Shape"></path>
                <path d="M210.82,21.5 C206.73,13.9 200.21,10.56 200.14,10.53 C190.6,4.92 182.93,3.98 182.86,3.98 C180.75,3.53 178.57,3.3 176.32,3.3 C170.43,3.3 165.98,4.82 165.8,4.89 C164.87,5.23 164,5.61 163.11,6.03 C158.06,8.61 152.3,12.29 148.23,23.08 C145.18,30.29 146.67,37.89 146.74,38.21 C148.79,48.29 157.41,53.82 157.78,54.04 C169.54,61.33 178.91,62.12 182.4,62.12 C183.05,62.12 183.46,62.09 183.56,62.08 L183.65,62.08 L183.77,62.07 L184.37,62.05 C184.58,62.05 184.76,62.07 184.94,62.11 C197.13,62.1 205.37,52.89 205.72,52.5 C210.07,47.69 212.15,41.11 212.23,40.83 C216.19,29.55 210.87,21.57 210.82,21.5 Z M194.58,36.29 C194.58,36.31 192.61,42.86 187.17,45.84 C186.91,46.04 184.01,48.09 179.68,48.09 C179.32,48.09 178.96,48.07 178.58,48.04 C178.25,48.04 171.72,47.97 166.91,42.12 C166.79,41.98 163.8,38.42 164.56,32.93 C164.56,32.93 164.7,29.72 166.23,26.93 C166.35,26.65 169.64,19.16 176.94,17.49 C176.94,17.49 178.69,17.01 180.97,17.01 C182.67,17.01 184.18,17.27 185.6,17.8 C185.8,17.86 191.15,19.52 193.63,23.64 C193.66,23.68 197.21,29.59 194.58,36.29 Z" id="Shape"></path>
            </g>
            <path d="M261.72,108.9 C259.78,108.9 258.46,107.88 258.46,105.85 C258.46,103.47 259.95,102.1 262.24,102.1 C264.16,102.1 265.53,103.18 265.53,105.18 C265.53,107.51 263.98,108.9 261.72,108.9 Z M262,102.61 C260.15,102.61 259.22,104.05 259.22,105.76 C259.22,107.44 260.29,108.4 261.96,108.4 C263.76,108.4 264.76,107 264.76,105.31 C264.77,103.64 263.66,102.61 262,102.61 Z M262.86,107.21 C262.63,107.23 262.54,107.15 262.37,106.9 C262.08,106.47 261.52,105.58 261.52,105.58 L261.52,106.76 C261.52,107.13 261.58,107.2 261.2,107.2 C261.01,107.2 260.77,107.18 260.62,107.16 C260.67,106.99 260.72,106.67 260.74,106.3 C260.79,105.6 260.81,104.73 260.81,104.36 C260.81,104.12 260.81,103.81 260.73,103.64 C261.02,103.55 261.52,103.49 261.88,103.49 C262.61,103.49 263.27,103.81 263.27,104.51 C263.27,105.02 262.93,105.46 262.34,105.55 C262.34,105.55 263.29,106.84 263.5,107.05 C263.5,107.05 263.16,107.18 262.86,107.21 Z M261.85,103.94 C261.81,103.94 261.63,103.94 261.59,103.95 L261.52,105.22 C261.63,105.26 261.77,105.29 261.88,105.29 C262.26,105.29 262.51,105 262.51,104.61 C262.51,104.14 262.24,103.94 261.85,103.94 Z" id="Shape" fill="#000000"></path>
        </g>
    </g>
</svg>